<svg width="21" height="21" viewBox="0 0 21 21" fill="none" xmlns="http://www.w3.org/2000/svg">
<path d="M17.7968 4.99609L15.7167 2.91797C15.57 2.77059 15.3956 2.65366 15.2035 2.57389C15.0115 2.49412 14.8056 2.45308 14.5976 2.45313C14.1738 2.45313 13.7753 2.61914 13.4765 2.91797L11.2382 5.15625C11.0908 5.30298 10.9739 5.47738 10.8941 5.66944C10.8144 5.8615 10.7733 6.06743 10.7734 6.27539C10.7734 6.69922 10.9394 7.09766 11.2382 7.39648L12.8749 9.0332C12.4918 9.87766 11.9592 10.6459 11.3027 11.3008C10.6478 11.9589 9.87968 12.4935 9.0351 12.8789L7.39838 11.2422C7.25165 11.0948 7.07724 10.9779 6.88519 10.8981C6.69313 10.8183 6.4872 10.7773 6.27924 10.7773C5.85541 10.7773 5.45697 10.9434 5.15814 11.2422L2.91791 13.4785C2.77035 13.6255 2.65332 13.8002 2.57354 13.9926C2.49377 14.185 2.45282 14.3913 2.45307 14.5996C2.45307 15.0234 2.61908 15.4219 2.91791 15.7207L4.99408 17.7969C5.47064 18.2754 6.12885 18.5469 6.80463 18.5469C6.9472 18.5469 7.08392 18.5352 7.21869 18.5117C9.8515 18.0781 12.4628 16.6777 14.5703 14.5723C16.6757 12.4688 18.0742 9.85938 18.5136 7.21875C18.6464 6.41211 18.3788 5.58203 17.7968 4.99609Z" fill="#3C3A3A"/>
</svg>
